<svg xmlns="http://www.w3.org/2000/svg" xmlns:xlink="http://www.w3.org/1999/xlink" width="20" height="23" viewBox="0 0 20 23"><defs><path id="p78fa" d="M877.482 875.969h3.706v1.855c0 .615.276 1.114.618 1.114h6.176c.341 0 .618-.499.618-1.114v-1.855h3.705c.82 0 1.483.664 1.483 1.485v8.596a5.934 5.934 0 0 0-8.153 5.507 5.92 5.92 0 0 0 1.3 3.712h-9.453a1.484 1.484 0 0 1-1.482-1.485v-16.33c0-.82.663-1.485 1.482-1.485zm14.082 11.14a4.444 4.444 0 0 1 4.441 4.448 4.444 4.444 0 0 1-4.44 4.448 4.444 4.444 0 0 1-4.441-4.448 4.444 4.444 0 0 1 4.44-4.447zm2.719 3.148a.921.921 0 0 0-1.137 0l-2.28 1.903-.424-.424a.652.652 0 1 0-.923.924l.58.582a.62.62 0 0 0 .204.337.891.891 0 0 0 .806.157.844.844 0 0 0 .331-.157l2.843-2.373a.596.596 0 0 0 0-.949zm-7.166-12.062h-4.447a.742.742 0 0 1-.74-.741v-1.485c0-.41.33-.743.74-.743h.045a1.565 1.565 0 0 1-.045-.371c0-1.025.996-1.856 2.224-1.856 1.228 0 2.223.831 2.223 1.856 0 .127-.015.251-.045.37h.045c.41 0 .741.334.741.744v1.485c0 .41-.331.741-.74.741zm-2.964-2.226h1.482v-1.485h-1.482z"/></defs><g><g transform="translate(-876 -873)"><use fill="#fff" xlink:href="#p78fa"/></g></g></svg>