<svg xmlns="http://www.w3.org/2000/svg" xmlns:xlink="http://www.w3.org/1999/xlink" width="26" height="22" viewBox="0 0 26 22"><defs><path id="iy16a" d="M1292.428 884.228c-3.59 0-6.5 2.895-6.5 6.467a6.44 6.44 0 0 0 2.423 5.033c-1.91 1.4-3.351 2.28-3.351 2.28s-13-7.93-13-14.32c0-3.849 2.398-7.698 6.964-7.698 4.178 0 6.036 3.937 6.036 3.937s1.625-3.937 6.035-3.937c4.411 0 6.887 3.772 6.887 7.699 0 .878-.253 1.782-.665 2.687a6.491 6.491 0 0 0-4.829-2.148zm0 .924c3.077 0 5.572 2.481 5.572 5.543 0 3.061-2.495 5.543-5.572 5.543s-5.571-2.482-5.571-5.543c0-3.062 2.494-5.543 5.571-5.543zm-2.785 6.466h1.857v1.849h1.857v-1.849h1.857v-1.847h-1.857v-1.848h-1.857v1.848h-1.857z"/></defs><g><g transform="translate(-1272 -876)"><use fill="#fff" xlink:href="#iy16a"/></g></g></svg>