<svg xmlns="http://www.w3.org/2000/svg" xmlns:xlink="http://www.w3.org/1999/xlink" width="25" height="24" viewBox="0 0 25 24"><defs><path id="bcgna" d="M1686.745 1274.992a1.05 1.05 0 0 1-1.025-.824l-3.906-17.6-2.345 9.174a1.05 1.05 0 0 1-1.018.791h-4.401a1.051 1.051 0 0 1 0-2.103h3.586l3.233-12.647c.12-.471.546-.813 1.034-.791.486.008.903.349 1.01.824l3.778 17.025 1.928-9.675a1.052 1.052 0 0 1 1.977-.251l2.316 4.815h4.038a1.051 1.051 0 0 1 0 2.104h-4.698a1.05 1.05 0 0 1-.947-.595l-1.24-2.578-2.289 11.484c-.097.489-.522.841-1.019.847h-.012z"/></defs><g><g transform="translate(-1673 -1251)"><use fill="#fff" xlink:href="#bcgna"/></g></g></svg>