<svg xmlns="http://www.w3.org/2000/svg" xmlns:xlink="http://www.w3.org/1999/xlink" width="21" height="26" viewBox="0 0 21 26"><defs><path id="u863a" d="M1295.995 1267.469c0 1.52-.298 3.068-.888 4.602a.651.651 0 0 1-.607.42h-2.565c-1.33 1.525-2.79 2.668-4.342 3.396a.666.666 0 0 1-.22.06c-.477.038-.825.057-1.064.057-.655 0-1.413-.114-2.254-.343l-.53.273a.647.647 0 0 1-.294.07h-.76c-2.636 0-3.19-1.3-3.19-2.39 0-.032.001-.067.004-.105-1.373-.203-2.095-.996-2.095-2.309 0-.093.005-.21.016-.349-.47-.169-.84-.418-1.101-.744-.312-.376-.47-.861-.47-1.44 0-.41.121-.84.363-1.279-.668-.791-.993-1.646-.993-2.609 0-1.198.639-2.171 1.9-2.89 1.217-.687 2.828-1.033 4.793-1.033h.153a10.575 10.575 0 0 0-1.004-3.047l-.306-.539c-.721-1.394-1.065-2.435-1.065-3.204 0-2.13 1.118-3.477 3.321-4l.208-.052a.649.649 0 0 1 .79.495l.89 3.993 3.587 3.865c.252.296.63.79 1.325 1.727l.548.732c.716.983 1.041 1.316 1.189 1.425.193.144.537.218 1.002.218h2.075c.257 0 .49.154.595.391.657 1.492.989 3.042.989 4.609zm-8.863 7.044c1.632-.964 2.875-2.042 3.907-3.39a.648.648 0 0 1 .515-.256h2.328c.352-1.094.53-2.162.53-3.18 0-1.201-.198-2.396-.588-3.555-2.358-.013-2.857-.249-3.025-.327-.17-.079-.699-.325-2.01-2.193a64.61 64.61 0 0 0-1.502-1.955l-3.877-4.18a.654.654 0 0 1-.162-.312l-.694-3.263c-.452.198-.801.455-1.042.766-.286.372-.433.842-.433 1.398 0 .599.212 1.257.63 1.957l.249.434a.056.056 0 0 1 .006.01c1.051 1.766 1.584 3.484 1.584 5.103l.002.07a.66.66 0 0 1-.643.784h-.342c-2.04.001-3.59.204-4.604.606-1.25.5-1.395 1.172-1.395 1.633 0 .693.239 1.262.73 1.74.494.483 1.08.718 1.797.718l1.145.013 3.184-1.453c-.456-.555-1.024-.826-1.724-.826-.2 0-.478.05-.827.145-.32.096-.708.24-1.212.448a.607.607 0 0 1-.217.048l-.7.032a.64.64 0 0 1-.505-.208l-.255-.275a.665.665 0 0 1-.123-.709.65.65 0 0 1 .59-.4l.726-.01a7.815 7.815 0 0 1 1.259-.429c.394-.099.77-.15 1.108-.15 1.68 0 2.95.81 3.778 2.41a.664.664 0 0 1-.163.815c.563.39 1.033.94 1.4 1.643a.667.667 0 0 1-.283.897c.404.35.786.817 1.141 1.397a.663.663 0 0 1-.275.944l-.444.212c.453.416.842.933 1.16 1.541a.666.666 0 0 1-.308.912l-.92.417zm-4.08-.037l2.842-1.298c0-.002-.002-.003-.003-.005a3.941 3.941 0 0 0-.744-.793l-2.588 1.17a.655.655 0 0 1-.266.058h-1.439c.034.258.147.45.342.587.269.186.697.28 1.275.28zm-5.347-5.141c.35.179.911.27 1.665.27h2.03l3.237-1.45c-.342-.377-.731-.635-1.163-.769l-2.77 1.26a.656.656 0 0 1-.267.057h-.966c-.896 0-1.598-.11-2.134-.337a.735.735 0 0 0-.078.301c0 .293.142.505.446.668zm.975 1.822c.011.262.14.443.415.583.342.176.88.265 1.6.265h1.419l3.356-1.517a3.209 3.209 0 0 0-.822-.637l-2.824 1.269a.771.771 0 0 1-.268.056z"/></defs><g><g transform="translate(-1275 -1250)"><use fill="#fff" xlink:href="#u863a"/></g></g></svg>