<svg xmlns="http://www.w3.org/2000/svg" xmlns:xlink="http://www.w3.org/1999/xlink" width="16" height="22" viewBox="0 0 16 22"><defs><path id="20mca" d="M1692.972 878.353H1677l.016-1.708h1.275l2.702-2.646h8.097l2.646 2.646h1.276zm-6.6-2.59h-2.662v.882h2.662zm5.174 9.7h-3.002a3.98 3.98 0 0 0-3.54-2.168c-1.549 0-2.877.886-3.54 2.167h-2.947l-.574-6.172h14.197zm-8.723 1.763c0-1.217.993-2.204 2.219-2.204 1.225 0 2.218.987 2.218 2.204a2.211 2.211 0 0 1-2.218 2.205 2.212 2.212 0 0 1-2.219-2.205zm2.181 4.005c1.595 0 2.96-.935 3.6-2.278h2.605l-.677 7.036h-11.037l-.654-7.036h2.564a3.985 3.985 0 0 0 3.6 2.278z"/></defs><g><g transform="translate(-1677 -874)"><use fill="#fff" xlink:href="#20mca"/></g></g></svg>